<mxfile host="Electron" modified="2023-05-19T10:17:11.202Z" agent="Mozilla/5.0 (X11; Linux x86_64) AppleWebKit/537.36 (KHTML, like Gecko) draw.io/21.1.2 Chrome/106.0.5249.199 Electron/21.4.3 Safari/537.36" etag="EDzGuEnboCAWHm8NwX5b" version="21.1.2" type="device">
  <diagram name="Página-1" id="TydjaqrhLNxB-BzG_ap2">
    <mxGraphModel dx="3434" dy="1420" grid="1" gridSize="10" guides="1" tooltips="1" connect="1" arrows="1" fold="1" page="1" pageScale="1" pageWidth="827" pageHeight="1169" math="0" shadow="0">
      <root>
        <mxCell id="0" />
        <mxCell id="1" parent="0" />
        <mxCell id="RCFaWYIWiVFVG0Mpc9oN-1" value="Deseja-se construir um sistema acadêmico. Para isso, são registrados os cursos disponíveis, onde cada um possui um nome, carga horária e valor. Quando um curso vai ser oferecido, é registrada uma turma, informando os seguintes dados: número da turma, data de início e número de vagas. Uma matrícula de um aluno em uma turma consiste na data de matrícula e no número de prestações em que o aluno vai pagar o curso. Para cada aluno, é necessário cadastrar seu nome, cpf, e data de nascimento. Cada aluno passa por várias avaliações durante o desenrolar do curso que está cursando. Uma avaliação possui nota e data. Depois que a avaliação ocorre, é registrado resultado de cada aluno da turma (a nota que ele tirou). Um aluno é aprovado em um curso se sua nota total for maior ou igual à nota mínima de aprovação prevista&lt;br&gt;para o curso." style="text;whiteSpace=wrap;html=1;align=center;" vertex="1" parent="1">
          <mxGeometry x="20" y="30" width="780" height="120" as="geometry" />
        </mxCell>
        <mxCell id="RCFaWYIWiVFVG0Mpc9oN-2" value="Curso" style="swimlane;fontStyle=0;childLayout=stackLayout;horizontal=1;startSize=26;fillColor=none;horizontalStack=0;resizeParent=1;resizeParentMax=0;resizeLast=0;collapsible=1;marginBottom=0;whiteSpace=wrap;html=1;" vertex="1" parent="1">
          <mxGeometry x="20" y="180" width="190" height="156" as="geometry" />
        </mxCell>
        <mxCell id="RCFaWYIWiVFVG0Mpc9oN-6" value="- &amp;lt;&amp;lt;oid&amp;gt;&amp;gt; id: UUID" style="text;strokeColor=none;fillColor=none;align=left;verticalAlign=top;spacingLeft=4;spacingRight=4;overflow=hidden;rotatable=0;points=[[0,0.5],[1,0.5]];portConstraint=eastwest;whiteSpace=wrap;html=1;" vertex="1" parent="RCFaWYIWiVFVG0Mpc9oN-2">
          <mxGeometry y="26" width="190" height="26" as="geometry" />
        </mxCell>
        <mxCell id="RCFaWYIWiVFVG0Mpc9oN-3" value="- nome: String" style="text;strokeColor=none;fillColor=none;align=left;verticalAlign=top;spacingLeft=4;spacingRight=4;overflow=hidden;rotatable=0;points=[[0,0.5],[1,0.5]];portConstraint=eastwest;whiteSpace=wrap;html=1;" vertex="1" parent="RCFaWYIWiVFVG0Mpc9oN-2">
          <mxGeometry y="52" width="190" height="26" as="geometry" />
        </mxCell>
        <mxCell id="RCFaWYIWiVFVG0Mpc9oN-4" value="- cargaHoraria: Integer" style="text;strokeColor=none;fillColor=none;align=left;verticalAlign=top;spacingLeft=4;spacingRight=4;overflow=hidden;rotatable=0;points=[[0,0.5],[1,0.5]];portConstraint=eastwest;whiteSpace=wrap;html=1;" vertex="1" parent="RCFaWYIWiVFVG0Mpc9oN-2">
          <mxGeometry y="78" width="190" height="26" as="geometry" />
        </mxCell>
        <mxCell id="RCFaWYIWiVFVG0Mpc9oN-5" value="- valor: Double" style="text;strokeColor=none;fillColor=none;align=left;verticalAlign=top;spacingLeft=4;spacingRight=4;overflow=hidden;rotatable=0;points=[[0,0.5],[1,0.5]];portConstraint=eastwest;whiteSpace=wrap;html=1;" vertex="1" parent="RCFaWYIWiVFVG0Mpc9oN-2">
          <mxGeometry y="104" width="190" height="26" as="geometry" />
        </mxCell>
        <mxCell id="RCFaWYIWiVFVG0Mpc9oN-56" value="- notaMinimaAprovacao: Integer" style="text;strokeColor=none;fillColor=none;align=left;verticalAlign=top;spacingLeft=4;spacingRight=4;overflow=hidden;rotatable=0;points=[[0,0.5],[1,0.5]];portConstraint=eastwest;whiteSpace=wrap;html=1;" vertex="1" parent="RCFaWYIWiVFVG0Mpc9oN-2">
          <mxGeometry y="130" width="190" height="26" as="geometry" />
        </mxCell>
        <mxCell id="RCFaWYIWiVFVG0Mpc9oN-7" value="Turma" style="swimlane;fontStyle=0;childLayout=stackLayout;horizontal=1;startSize=26;fillColor=none;horizontalStack=0;resizeParent=1;resizeParentMax=0;resizeLast=0;collapsible=1;marginBottom=0;whiteSpace=wrap;html=1;" vertex="1" parent="1">
          <mxGeometry x="760" y="180" width="160" height="130" as="geometry" />
        </mxCell>
        <mxCell id="RCFaWYIWiVFVG0Mpc9oN-8" value="- &amp;lt;&amp;lt;oid&amp;gt;&amp;gt; id: UUID" style="text;strokeColor=none;fillColor=none;align=left;verticalAlign=top;spacingLeft=4;spacingRight=4;overflow=hidden;rotatable=0;points=[[0,0.5],[1,0.5]];portConstraint=eastwest;whiteSpace=wrap;html=1;" vertex="1" parent="RCFaWYIWiVFVG0Mpc9oN-7">
          <mxGeometry y="26" width="160" height="26" as="geometry" />
        </mxCell>
        <mxCell id="RCFaWYIWiVFVG0Mpc9oN-9" value="- numeroTurma: Integer&amp;nbsp;" style="text;strokeColor=none;fillColor=none;align=left;verticalAlign=top;spacingLeft=4;spacingRight=4;overflow=hidden;rotatable=0;points=[[0,0.5],[1,0.5]];portConstraint=eastwest;whiteSpace=wrap;html=1;" vertex="1" parent="RCFaWYIWiVFVG0Mpc9oN-7">
          <mxGeometry y="52" width="160" height="26" as="geometry" />
        </mxCell>
        <mxCell id="RCFaWYIWiVFVG0Mpc9oN-10" value="- inicio: Date" style="text;strokeColor=none;fillColor=none;align=left;verticalAlign=top;spacingLeft=4;spacingRight=4;overflow=hidden;rotatable=0;points=[[0,0.5],[1,0.5]];portConstraint=eastwest;whiteSpace=wrap;html=1;" vertex="1" parent="RCFaWYIWiVFVG0Mpc9oN-7">
          <mxGeometry y="78" width="160" height="26" as="geometry" />
        </mxCell>
        <mxCell id="RCFaWYIWiVFVG0Mpc9oN-11" value="- vagas: Integer" style="text;strokeColor=none;fillColor=none;align=left;verticalAlign=top;spacingLeft=4;spacingRight=4;overflow=hidden;rotatable=0;points=[[0,0.5],[1,0.5]];portConstraint=eastwest;whiteSpace=wrap;html=1;" vertex="1" parent="RCFaWYIWiVFVG0Mpc9oN-7">
          <mxGeometry y="104" width="160" height="26" as="geometry" />
        </mxCell>
        <mxCell id="RCFaWYIWiVFVG0Mpc9oN-41" style="edgeStyle=orthogonalEdgeStyle;rounded=0;orthogonalLoop=1;jettySize=auto;html=1;endArrow=none;endFill=0;" edge="1" parent="1" source="RCFaWYIWiVFVG0Mpc9oN-13" target="RCFaWYIWiVFVG0Mpc9oN-34">
          <mxGeometry relative="1" as="geometry" />
        </mxCell>
        <mxCell id="RCFaWYIWiVFVG0Mpc9oN-42" value="1" style="edgeLabel;html=1;align=center;verticalAlign=middle;resizable=0;points=[];" vertex="1" connectable="0" parent="RCFaWYIWiVFVG0Mpc9oN-41">
          <mxGeometry x="-0.769" y="-1" relative="1" as="geometry">
            <mxPoint x="-10" y="-13" as="offset" />
          </mxGeometry>
        </mxCell>
        <mxCell id="RCFaWYIWiVFVG0Mpc9oN-43" value="- aluno" style="edgeLabel;html=1;align=center;verticalAlign=middle;resizable=0;points=[];" vertex="1" connectable="0" parent="RCFaWYIWiVFVG0Mpc9oN-41">
          <mxGeometry x="-0.7591" y="-1" relative="1" as="geometry">
            <mxPoint x="3" y="12" as="offset" />
          </mxGeometry>
        </mxCell>
        <mxCell id="RCFaWYIWiVFVG0Mpc9oN-44" value="*" style="edgeLabel;html=1;align=center;verticalAlign=middle;resizable=0;points=[];" vertex="1" connectable="0" parent="RCFaWYIWiVFVG0Mpc9oN-41">
          <mxGeometry x="0.8567" y="1" relative="1" as="geometry">
            <mxPoint x="-4" y="-11" as="offset" />
          </mxGeometry>
        </mxCell>
        <mxCell id="RCFaWYIWiVFVG0Mpc9oN-45" value="- avaliacoes" style="edgeLabel;html=1;align=center;verticalAlign=middle;resizable=0;points=[];" vertex="1" connectable="0" parent="RCFaWYIWiVFVG0Mpc9oN-41">
          <mxGeometry x="0.7877" y="-1" relative="1" as="geometry">
            <mxPoint x="-18" y="11" as="offset" />
          </mxGeometry>
        </mxCell>
        <mxCell id="RCFaWYIWiVFVG0Mpc9oN-50" style="edgeStyle=orthogonalEdgeStyle;rounded=0;orthogonalLoop=1;jettySize=auto;html=1;endArrow=none;endFill=0;" edge="1" parent="1" source="RCFaWYIWiVFVG0Mpc9oN-13" target="RCFaWYIWiVFVG0Mpc9oN-18">
          <mxGeometry relative="1" as="geometry" />
        </mxCell>
        <mxCell id="RCFaWYIWiVFVG0Mpc9oN-51" value="*" style="edgeLabel;html=1;align=center;verticalAlign=middle;resizable=0;points=[];" vertex="1" connectable="0" parent="RCFaWYIWiVFVG0Mpc9oN-50">
          <mxGeometry x="0.7333" y="2" relative="1" as="geometry">
            <mxPoint x="8" y="2" as="offset" />
          </mxGeometry>
        </mxCell>
        <mxCell id="RCFaWYIWiVFVG0Mpc9oN-52" value="- matriculas" style="edgeLabel;html=1;align=center;verticalAlign=middle;resizable=0;points=[];" vertex="1" connectable="0" parent="RCFaWYIWiVFVG0Mpc9oN-50">
          <mxGeometry x="0.7333" y="1" relative="1" as="geometry">
            <mxPoint x="-32" as="offset" />
          </mxGeometry>
        </mxCell>
        <mxCell id="RCFaWYIWiVFVG0Mpc9oN-53" value="1..*" style="edgeLabel;html=1;align=center;verticalAlign=middle;resizable=0;points=[];" vertex="1" connectable="0" parent="RCFaWYIWiVFVG0Mpc9oN-50">
          <mxGeometry x="-0.6902" y="1" relative="1" as="geometry">
            <mxPoint x="12" y="9" as="offset" />
          </mxGeometry>
        </mxCell>
        <mxCell id="RCFaWYIWiVFVG0Mpc9oN-54" value="- alunos" style="edgeLabel;html=1;align=center;verticalAlign=middle;resizable=0;points=[];" vertex="1" connectable="0" parent="RCFaWYIWiVFVG0Mpc9oN-50">
          <mxGeometry x="-0.6364" y="1" relative="1" as="geometry">
            <mxPoint x="-22" y="12" as="offset" />
          </mxGeometry>
        </mxCell>
        <mxCell id="RCFaWYIWiVFVG0Mpc9oN-13" value="Aluno" style="swimlane;fontStyle=0;childLayout=stackLayout;horizontal=1;startSize=26;fillColor=none;horizontalStack=0;resizeParent=1;resizeParentMax=0;resizeLast=0;collapsible=1;marginBottom=0;whiteSpace=wrap;html=1;" vertex="1" parent="1">
          <mxGeometry x="350" y="558" width="140" height="130" as="geometry" />
        </mxCell>
        <mxCell id="RCFaWYIWiVFVG0Mpc9oN-14" value="- &amp;lt;&amp;lt;oid&amp;gt;&amp;gt; id: UUID" style="text;strokeColor=none;fillColor=none;align=left;verticalAlign=top;spacingLeft=4;spacingRight=4;overflow=hidden;rotatable=0;points=[[0,0.5],[1,0.5]];portConstraint=eastwest;whiteSpace=wrap;html=1;" vertex="1" parent="RCFaWYIWiVFVG0Mpc9oN-13">
          <mxGeometry y="26" width="140" height="26" as="geometry" />
        </mxCell>
        <mxCell id="RCFaWYIWiVFVG0Mpc9oN-15" value="- nome: String" style="text;strokeColor=none;fillColor=none;align=left;verticalAlign=top;spacingLeft=4;spacingRight=4;overflow=hidden;rotatable=0;points=[[0,0.5],[1,0.5]];portConstraint=eastwest;whiteSpace=wrap;html=1;" vertex="1" parent="RCFaWYIWiVFVG0Mpc9oN-13">
          <mxGeometry y="52" width="140" height="26" as="geometry" />
        </mxCell>
        <mxCell id="RCFaWYIWiVFVG0Mpc9oN-16" value="- cpf: String" style="text;strokeColor=none;fillColor=none;align=left;verticalAlign=top;spacingLeft=4;spacingRight=4;overflow=hidden;rotatable=0;points=[[0,0.5],[1,0.5]];portConstraint=eastwest;whiteSpace=wrap;html=1;" vertex="1" parent="RCFaWYIWiVFVG0Mpc9oN-13">
          <mxGeometry y="78" width="140" height="26" as="geometry" />
        </mxCell>
        <mxCell id="RCFaWYIWiVFVG0Mpc9oN-17" value="- dataNascimento: Date" style="text;strokeColor=none;fillColor=none;align=left;verticalAlign=top;spacingLeft=4;spacingRight=4;overflow=hidden;rotatable=0;points=[[0,0.5],[1,0.5]];portConstraint=eastwest;whiteSpace=wrap;html=1;" vertex="1" parent="RCFaWYIWiVFVG0Mpc9oN-13">
          <mxGeometry y="104" width="140" height="26" as="geometry" />
        </mxCell>
        <mxCell id="RCFaWYIWiVFVG0Mpc9oN-18" value="Matrícula" style="swimlane;fontStyle=0;childLayout=stackLayout;horizontal=1;startSize=26;fillColor=none;horizontalStack=0;resizeParent=1;resizeParentMax=0;resizeLast=0;collapsible=1;marginBottom=0;whiteSpace=wrap;html=1;" vertex="1" parent="1">
          <mxGeometry x="350" y="330" width="140" height="104" as="geometry" />
        </mxCell>
        <mxCell id="RCFaWYIWiVFVG0Mpc9oN-19" value="- &amp;lt;&amp;lt;oid&amp;gt;&amp;gt; id: UUID" style="text;strokeColor=none;fillColor=none;align=left;verticalAlign=top;spacingLeft=4;spacingRight=4;overflow=hidden;rotatable=0;points=[[0,0.5],[1,0.5]];portConstraint=eastwest;whiteSpace=wrap;html=1;" vertex="1" parent="RCFaWYIWiVFVG0Mpc9oN-18">
          <mxGeometry y="26" width="140" height="26" as="geometry" />
        </mxCell>
        <mxCell id="RCFaWYIWiVFVG0Mpc9oN-20" value="- dataMatricula: Date" style="text;strokeColor=none;fillColor=none;align=left;verticalAlign=top;spacingLeft=4;spacingRight=4;overflow=hidden;rotatable=0;points=[[0,0.5],[1,0.5]];portConstraint=eastwest;whiteSpace=wrap;html=1;" vertex="1" parent="RCFaWYIWiVFVG0Mpc9oN-18">
          <mxGeometry y="52" width="140" height="26" as="geometry" />
        </mxCell>
        <mxCell id="RCFaWYIWiVFVG0Mpc9oN-21" value="- prestacoes: Integer" style="text;strokeColor=none;fillColor=none;align=left;verticalAlign=top;spacingLeft=4;spacingRight=4;overflow=hidden;rotatable=0;points=[[0,0.5],[1,0.5]];portConstraint=eastwest;whiteSpace=wrap;html=1;" vertex="1" parent="RCFaWYIWiVFVG0Mpc9oN-18">
          <mxGeometry y="78" width="140" height="26" as="geometry" />
        </mxCell>
        <mxCell id="RCFaWYIWiVFVG0Mpc9oN-40" style="edgeStyle=orthogonalEdgeStyle;rounded=0;orthogonalLoop=1;jettySize=auto;html=1;endArrow=none;endFill=0;" edge="1" parent="1" source="RCFaWYIWiVFVG0Mpc9oN-34" target="RCFaWYIWiVFVG0Mpc9oN-7">
          <mxGeometry relative="1" as="geometry" />
        </mxCell>
        <mxCell id="RCFaWYIWiVFVG0Mpc9oN-46" value="1" style="edgeLabel;html=1;align=center;verticalAlign=middle;resizable=0;points=[];" vertex="1" connectable="0" parent="RCFaWYIWiVFVG0Mpc9oN-40">
          <mxGeometry x="0.7556" y="2" relative="1" as="geometry">
            <mxPoint x="-6" y="-22" as="offset" />
          </mxGeometry>
        </mxCell>
        <mxCell id="RCFaWYIWiVFVG0Mpc9oN-47" value="- turma" style="edgeLabel;html=1;align=center;verticalAlign=middle;resizable=0;points=[];" vertex="1" connectable="0" parent="RCFaWYIWiVFVG0Mpc9oN-40">
          <mxGeometry x="0.7402" y="-3" relative="1" as="geometry">
            <mxPoint x="17" y="-24" as="offset" />
          </mxGeometry>
        </mxCell>
        <mxCell id="RCFaWYIWiVFVG0Mpc9oN-48" value="- avaliacoes" style="edgeLabel;html=1;align=center;verticalAlign=middle;resizable=0;points=[];" vertex="1" connectable="0" parent="RCFaWYIWiVFVG0Mpc9oN-40">
          <mxGeometry x="-0.7157" y="1" relative="1" as="geometry">
            <mxPoint x="33" y="21" as="offset" />
          </mxGeometry>
        </mxCell>
        <mxCell id="RCFaWYIWiVFVG0Mpc9oN-49" value="*" style="edgeLabel;html=1;align=center;verticalAlign=middle;resizable=0;points=[];" vertex="1" connectable="0" parent="RCFaWYIWiVFVG0Mpc9oN-40">
          <mxGeometry x="-0.7923" y="1" relative="1" as="geometry">
            <mxPoint x="-7" y="13" as="offset" />
          </mxGeometry>
        </mxCell>
        <mxCell id="RCFaWYIWiVFVG0Mpc9oN-34" value="Avaliacao" style="swimlane;fontStyle=0;childLayout=stackLayout;horizontal=1;startSize=26;fillColor=none;horizontalStack=0;resizeParent=1;resizeParentMax=0;resizeLast=0;collapsible=1;marginBottom=0;whiteSpace=wrap;html=1;" vertex="1" parent="1">
          <mxGeometry x="770" y="571" width="140" height="104" as="geometry" />
        </mxCell>
        <mxCell id="RCFaWYIWiVFVG0Mpc9oN-35" value="- &amp;lt;&amp;lt;oid&amp;gt;&amp;gt; id: UUID" style="text;strokeColor=none;fillColor=none;align=left;verticalAlign=top;spacingLeft=4;spacingRight=4;overflow=hidden;rotatable=0;points=[[0,0.5],[1,0.5]];portConstraint=eastwest;whiteSpace=wrap;html=1;" vertex="1" parent="RCFaWYIWiVFVG0Mpc9oN-34">
          <mxGeometry y="26" width="140" height="26" as="geometry" />
        </mxCell>
        <mxCell id="RCFaWYIWiVFVG0Mpc9oN-36" value="- nota: Double" style="text;strokeColor=none;fillColor=none;align=left;verticalAlign=top;spacingLeft=4;spacingRight=4;overflow=hidden;rotatable=0;points=[[0,0.5],[1,0.5]];portConstraint=eastwest;whiteSpace=wrap;html=1;" vertex="1" parent="RCFaWYIWiVFVG0Mpc9oN-34">
          <mxGeometry y="52" width="140" height="26" as="geometry" />
        </mxCell>
        <mxCell id="RCFaWYIWiVFVG0Mpc9oN-37" value="- data: Date" style="text;strokeColor=none;fillColor=none;align=left;verticalAlign=top;spacingLeft=4;spacingRight=4;overflow=hidden;rotatable=0;points=[[0,0.5],[1,0.5]];portConstraint=eastwest;whiteSpace=wrap;html=1;" vertex="1" parent="RCFaWYIWiVFVG0Mpc9oN-34">
          <mxGeometry y="78" width="140" height="26" as="geometry" />
        </mxCell>
        <mxCell id="RCFaWYIWiVFVG0Mpc9oN-107" style="edgeStyle=orthogonalEdgeStyle;rounded=0;orthogonalLoop=1;jettySize=auto;html=1;endArrow=none;endFill=0;" edge="1" parent="1" source="RCFaWYIWiVFVG0Mpc9oN-3" target="RCFaWYIWiVFVG0Mpc9oN-7">
          <mxGeometry relative="1" as="geometry" />
        </mxCell>
        <mxCell id="RCFaWYIWiVFVG0Mpc9oN-109" value="1..*" style="edgeLabel;html=1;align=center;verticalAlign=middle;resizable=0;points=[];" vertex="1" connectable="0" parent="RCFaWYIWiVFVG0Mpc9oN-107">
          <mxGeometry x="-0.9379" y="1" relative="1" as="geometry">
            <mxPoint x="7" y="-8" as="offset" />
          </mxGeometry>
        </mxCell>
        <mxCell id="RCFaWYIWiVFVG0Mpc9oN-110" value="- cursos" style="edgeLabel;html=1;align=center;verticalAlign=middle;resizable=0;points=[];" vertex="1" connectable="0" parent="RCFaWYIWiVFVG0Mpc9oN-107">
          <mxGeometry x="-0.9447" y="1" relative="1" as="geometry">
            <mxPoint x="15" y="12" as="offset" />
          </mxGeometry>
        </mxCell>
        <mxCell id="RCFaWYIWiVFVG0Mpc9oN-111" value="*" style="edgeLabel;html=1;align=center;verticalAlign=middle;resizable=0;points=[];" vertex="1" connectable="0" parent="RCFaWYIWiVFVG0Mpc9oN-107">
          <mxGeometry x="0.9595" y="1" relative="1" as="geometry">
            <mxPoint y="-8" as="offset" />
          </mxGeometry>
        </mxCell>
        <mxCell id="RCFaWYIWiVFVG0Mpc9oN-112" value="- turmas" style="edgeLabel;html=1;align=center;verticalAlign=middle;resizable=0;points=[];" vertex="1" connectable="0" parent="RCFaWYIWiVFVG0Mpc9oN-107">
          <mxGeometry x="0.9393" relative="1" as="geometry">
            <mxPoint x="-13" y="11" as="offset" />
          </mxGeometry>
        </mxCell>
        <mxCell id="RCFaWYIWiVFVG0Mpc9oN-108" value="" style="endArrow=none;dashed=1;html=1;rounded=0;" edge="1" parent="1" target="RCFaWYIWiVFVG0Mpc9oN-18">
          <mxGeometry width="50" height="50" relative="1" as="geometry">
            <mxPoint x="420" y="250" as="sourcePoint" />
            <mxPoint x="419.88" y="330" as="targetPoint" />
          </mxGeometry>
        </mxCell>
        <mxCell id="RCFaWYIWiVFVG0Mpc9oN-113" value="Instância mínima: 1 curso, 1 turma, 2 matrículas e 2 avaliações com resultados." style="text;whiteSpace=wrap;html=1;" vertex="1" parent="1">
          <mxGeometry x="190" y="830" width="460" height="40" as="geometry" />
        </mxCell>
        <mxCell id="RCFaWYIWiVFVG0Mpc9oN-114" value="c1: Curso" style="swimlane;fontStyle=0;childLayout=stackLayout;horizontal=1;startSize=26;fillColor=none;horizontalStack=0;resizeParent=1;resizeParentMax=0;resizeLast=0;collapsible=1;marginBottom=0;whiteSpace=wrap;html=1;" vertex="1" parent="1">
          <mxGeometry x="-256" y="870" width="270" height="156" as="geometry" />
        </mxCell>
        <mxCell id="RCFaWYIWiVFVG0Mpc9oN-115" value="id =&amp;nbsp;&quot;af7c1fe6-d669-414e-b066-e9733f0de7a8&quot;" style="text;strokeColor=none;fillColor=none;align=left;verticalAlign=top;spacingLeft=4;spacingRight=4;overflow=hidden;rotatable=0;points=[[0,0.5],[1,0.5]];portConstraint=eastwest;whiteSpace=wrap;html=1;" vertex="1" parent="RCFaWYIWiVFVG0Mpc9oN-114">
          <mxGeometry y="26" width="270" height="26" as="geometry" />
        </mxCell>
        <mxCell id="RCFaWYIWiVFVG0Mpc9oN-116" value="nome = &quot;Curso de Design&quot;" style="text;strokeColor=none;fillColor=none;align=left;verticalAlign=top;spacingLeft=4;spacingRight=4;overflow=hidden;rotatable=0;points=[[0,0.5],[1,0.5]];portConstraint=eastwest;whiteSpace=wrap;html=1;" vertex="1" parent="RCFaWYIWiVFVG0Mpc9oN-114">
          <mxGeometry y="52" width="270" height="26" as="geometry" />
        </mxCell>
        <mxCell id="RCFaWYIWiVFVG0Mpc9oN-117" value="cargaHoraria = 200" style="text;strokeColor=none;fillColor=none;align=left;verticalAlign=top;spacingLeft=4;spacingRight=4;overflow=hidden;rotatable=0;points=[[0,0.5],[1,0.5]];portConstraint=eastwest;whiteSpace=wrap;html=1;" vertex="1" parent="RCFaWYIWiVFVG0Mpc9oN-114">
          <mxGeometry y="78" width="270" height="26" as="geometry" />
        </mxCell>
        <mxCell id="RCFaWYIWiVFVG0Mpc9oN-118" value="valor = 1499.90" style="text;strokeColor=none;fillColor=none;align=left;verticalAlign=top;spacingLeft=4;spacingRight=4;overflow=hidden;rotatable=0;points=[[0,0.5],[1,0.5]];portConstraint=eastwest;whiteSpace=wrap;html=1;" vertex="1" parent="RCFaWYIWiVFVG0Mpc9oN-114">
          <mxGeometry y="104" width="270" height="26" as="geometry" />
        </mxCell>
        <mxCell id="RCFaWYIWiVFVG0Mpc9oN-119" value="notaMinimaAprovacao = 7" style="text;strokeColor=none;fillColor=none;align=left;verticalAlign=top;spacingLeft=4;spacingRight=4;overflow=hidden;rotatable=0;points=[[0,0.5],[1,0.5]];portConstraint=eastwest;whiteSpace=wrap;html=1;" vertex="1" parent="RCFaWYIWiVFVG0Mpc9oN-114">
          <mxGeometry y="130" width="270" height="26" as="geometry" />
        </mxCell>
        <mxCell id="RCFaWYIWiVFVG0Mpc9oN-126" value="t1: Turma" style="swimlane;fontStyle=0;childLayout=stackLayout;horizontal=1;startSize=26;fillColor=none;horizontalStack=0;resizeParent=1;resizeParentMax=0;resizeLast=0;collapsible=1;marginBottom=0;whiteSpace=wrap;html=1;" vertex="1" parent="1">
          <mxGeometry x="690" y="890" width="280" height="130" as="geometry" />
        </mxCell>
        <mxCell id="RCFaWYIWiVFVG0Mpc9oN-127" value="id =&amp;nbsp;&quot;c558a80a-f319-4c10-95d4-4282ef745b4b&quot;" style="text;strokeColor=none;fillColor=none;align=left;verticalAlign=top;spacingLeft=4;spacingRight=4;overflow=hidden;rotatable=0;points=[[0,0.5],[1,0.5]];portConstraint=eastwest;whiteSpace=wrap;html=1;" vertex="1" parent="RCFaWYIWiVFVG0Mpc9oN-126">
          <mxGeometry y="26" width="280" height="26" as="geometry" />
        </mxCell>
        <mxCell id="RCFaWYIWiVFVG0Mpc9oN-128" value="numeroTurma = 6354&amp;nbsp;" style="text;strokeColor=none;fillColor=none;align=left;verticalAlign=top;spacingLeft=4;spacingRight=4;overflow=hidden;rotatable=0;points=[[0,0.5],[1,0.5]];portConstraint=eastwest;whiteSpace=wrap;html=1;" vertex="1" parent="RCFaWYIWiVFVG0Mpc9oN-126">
          <mxGeometry y="52" width="280" height="26" as="geometry" />
        </mxCell>
        <mxCell id="RCFaWYIWiVFVG0Mpc9oN-129" value="inicio = 01/01/2023" style="text;strokeColor=none;fillColor=none;align=left;verticalAlign=top;spacingLeft=4;spacingRight=4;overflow=hidden;rotatable=0;points=[[0,0.5],[1,0.5]];portConstraint=eastwest;whiteSpace=wrap;html=1;" vertex="1" parent="RCFaWYIWiVFVG0Mpc9oN-126">
          <mxGeometry y="78" width="280" height="26" as="geometry" />
        </mxCell>
        <mxCell id="RCFaWYIWiVFVG0Mpc9oN-130" value="vagas = 150" style="text;strokeColor=none;fillColor=none;align=left;verticalAlign=top;spacingLeft=4;spacingRight=4;overflow=hidden;rotatable=0;points=[[0,0.5],[1,0.5]];portConstraint=eastwest;whiteSpace=wrap;html=1;" vertex="1" parent="RCFaWYIWiVFVG0Mpc9oN-126">
          <mxGeometry y="104" width="280" height="26" as="geometry" />
        </mxCell>
        <mxCell id="RCFaWYIWiVFVG0Mpc9oN-144" style="edgeStyle=orthogonalEdgeStyle;rounded=0;orthogonalLoop=1;jettySize=auto;html=1;endArrow=none;endFill=0;" edge="1" parent="1" target="RCFaWYIWiVFVG0Mpc9oN-114">
          <mxGeometry relative="1" as="geometry">
            <mxPoint x="124.0434782608695" y="1100" as="sourcePoint" />
            <mxPoint x="-16" y="950.0434782608697" as="targetPoint" />
            <Array as="points">
              <mxPoint x="124" y="950" />
            </Array>
          </mxGeometry>
        </mxCell>
        <mxCell id="RCFaWYIWiVFVG0Mpc9oN-145" style="edgeStyle=orthogonalEdgeStyle;rounded=0;orthogonalLoop=1;jettySize=auto;html=1;endArrow=none;endFill=0;" edge="1" parent="1" target="RCFaWYIWiVFVG0Mpc9oN-126">
          <mxGeometry relative="1" as="geometry">
            <mxPoint x="124.0434782608695" y="1100" as="sourcePoint" />
            <mxPoint x="414" y="950.0434782608697" as="targetPoint" />
            <Array as="points">
              <mxPoint x="124" y="950" />
            </Array>
          </mxGeometry>
        </mxCell>
        <mxCell id="RCFaWYIWiVFVG0Mpc9oN-157" style="edgeStyle=orthogonalEdgeStyle;rounded=0;orthogonalLoop=1;jettySize=auto;html=1;endArrow=none;endFill=0;" edge="1" parent="1" source="RCFaWYIWiVFVG0Mpc9oN-131" target="RCFaWYIWiVFVG0Mpc9oN-147">
          <mxGeometry relative="1" as="geometry" />
        </mxCell>
        <mxCell id="RCFaWYIWiVFVG0Mpc9oN-131" value="m1: Matrícula" style="swimlane;fontStyle=0;childLayout=stackLayout;horizontal=1;startSize=26;fillColor=none;horizontalStack=0;resizeParent=1;resizeParentMax=0;resizeLast=0;collapsible=1;marginBottom=0;whiteSpace=wrap;html=1;" vertex="1" parent="1">
          <mxGeometry x="-126" y="1100" width="322" height="104" as="geometry" />
        </mxCell>
        <mxCell id="RCFaWYIWiVFVG0Mpc9oN-132" value="id = &quot;96fdc209-0551-4d67-b9ad-0e9067a44bc4&quot;" style="text;strokeColor=none;fillColor=none;align=left;verticalAlign=top;spacingLeft=4;spacingRight=4;overflow=hidden;rotatable=0;points=[[0,0.5],[1,0.5]];portConstraint=eastwest;whiteSpace=wrap;html=1;" vertex="1" parent="RCFaWYIWiVFVG0Mpc9oN-131">
          <mxGeometry y="26" width="322" height="26" as="geometry" />
        </mxCell>
        <mxCell id="RCFaWYIWiVFVG0Mpc9oN-133" value="dataMatricula = 25/12/2022" style="text;strokeColor=none;fillColor=none;align=left;verticalAlign=top;spacingLeft=4;spacingRight=4;overflow=hidden;rotatable=0;points=[[0,0.5],[1,0.5]];portConstraint=eastwest;whiteSpace=wrap;html=1;" vertex="1" parent="RCFaWYIWiVFVG0Mpc9oN-131">
          <mxGeometry y="52" width="322" height="26" as="geometry" />
        </mxCell>
        <mxCell id="RCFaWYIWiVFVG0Mpc9oN-134" value="prestacoes = 6" style="text;strokeColor=none;fillColor=none;align=left;verticalAlign=top;spacingLeft=4;spacingRight=4;overflow=hidden;rotatable=0;points=[[0,0.5],[1,0.5]];portConstraint=eastwest;whiteSpace=wrap;html=1;" vertex="1" parent="RCFaWYIWiVFVG0Mpc9oN-131">
          <mxGeometry y="78" width="322" height="26" as="geometry" />
        </mxCell>
        <mxCell id="RCFaWYIWiVFVG0Mpc9oN-139" style="edgeStyle=orthogonalEdgeStyle;rounded=0;orthogonalLoop=1;jettySize=auto;html=1;endArrow=none;endFill=0;" edge="1" parent="1" target="RCFaWYIWiVFVG0Mpc9oN-114">
          <mxGeometry relative="1" as="geometry">
            <mxPoint x="368.9565217391305" y="1102" as="sourcePoint" />
            <mxPoint x="39" y="950.0434782608695" as="targetPoint" />
            <Array as="points">
              <mxPoint x="369" y="950" />
            </Array>
          </mxGeometry>
        </mxCell>
        <mxCell id="RCFaWYIWiVFVG0Mpc9oN-140" style="edgeStyle=orthogonalEdgeStyle;rounded=0;orthogonalLoop=1;jettySize=auto;html=1;endArrow=none;endFill=0;" edge="1" parent="1" target="RCFaWYIWiVFVG0Mpc9oN-126">
          <mxGeometry relative="1" as="geometry">
            <mxPoint x="368.99652173913046" y="1100" as="sourcePoint" />
            <mxPoint x="469.03999999999996" y="950.0434782608697" as="targetPoint" />
            <Array as="points">
              <mxPoint x="369" y="950" />
            </Array>
          </mxGeometry>
        </mxCell>
        <mxCell id="RCFaWYIWiVFVG0Mpc9oN-135" value="m1: Matrícula" style="swimlane;fontStyle=0;childLayout=stackLayout;horizontal=1;startSize=26;fillColor=none;horizontalStack=0;resizeParent=1;resizeParentMax=0;resizeLast=0;collapsible=1;marginBottom=0;whiteSpace=wrap;html=1;" vertex="1" parent="1">
          <mxGeometry x="319" y="1100" width="270" height="104" as="geometry" />
        </mxCell>
        <mxCell id="RCFaWYIWiVFVG0Mpc9oN-136" value="id = &quot;8c4753ae-21ad-4153-8f32-1aacc4da2643&quot;" style="text;strokeColor=none;fillColor=none;align=left;verticalAlign=top;spacingLeft=4;spacingRight=4;overflow=hidden;rotatable=0;points=[[0,0.5],[1,0.5]];portConstraint=eastwest;whiteSpace=wrap;html=1;" vertex="1" parent="RCFaWYIWiVFVG0Mpc9oN-135">
          <mxGeometry y="26" width="270" height="26" as="geometry" />
        </mxCell>
        <mxCell id="RCFaWYIWiVFVG0Mpc9oN-137" value="dataMatricula = 01/11/2023" style="text;strokeColor=none;fillColor=none;align=left;verticalAlign=top;spacingLeft=4;spacingRight=4;overflow=hidden;rotatable=0;points=[[0,0.5],[1,0.5]];portConstraint=eastwest;whiteSpace=wrap;html=1;" vertex="1" parent="RCFaWYIWiVFVG0Mpc9oN-135">
          <mxGeometry y="52" width="270" height="26" as="geometry" />
        </mxCell>
        <mxCell id="RCFaWYIWiVFVG0Mpc9oN-138" value="prestacoes = 2" style="text;strokeColor=none;fillColor=none;align=left;verticalAlign=top;spacingLeft=4;spacingRight=4;overflow=hidden;rotatable=0;points=[[0,0.5],[1,0.5]];portConstraint=eastwest;whiteSpace=wrap;html=1;" vertex="1" parent="RCFaWYIWiVFVG0Mpc9oN-135">
          <mxGeometry y="78" width="270" height="26" as="geometry" />
        </mxCell>
        <mxCell id="RCFaWYIWiVFVG0Mpc9oN-146" value="PS: as matriculas não se conhecem.&lt;br&gt;cada uma está relacionada a um curso&lt;br&gt;&amp;nbsp;e uma turma." style="text;html=1;align=center;verticalAlign=middle;resizable=0;points=[];autosize=1;strokeColor=none;fillColor=none;" vertex="1" parent="1">
          <mxGeometry x="134" y="1000" width="230" height="60" as="geometry" />
        </mxCell>
        <mxCell id="RCFaWYIWiVFVG0Mpc9oN-194" style="edgeStyle=orthogonalEdgeStyle;rounded=0;orthogonalLoop=1;jettySize=auto;html=1;endArrow=none;endFill=0;" edge="1" parent="1" source="RCFaWYIWiVFVG0Mpc9oN-147" target="RCFaWYIWiVFVG0Mpc9oN-190">
          <mxGeometry relative="1" as="geometry" />
        </mxCell>
        <mxCell id="RCFaWYIWiVFVG0Mpc9oN-195" style="edgeStyle=orthogonalEdgeStyle;rounded=0;orthogonalLoop=1;jettySize=auto;html=1;entryX=0.5;entryY=0;entryDx=0;entryDy=0;endArrow=none;endFill=0;" edge="1" parent="1" source="RCFaWYIWiVFVG0Mpc9oN-147" target="RCFaWYIWiVFVG0Mpc9oN-192">
          <mxGeometry relative="1" as="geometry" />
        </mxCell>
        <mxCell id="RCFaWYIWiVFVG0Mpc9oN-147" value="a1: Aluno" style="swimlane;fontStyle=0;childLayout=stackLayout;horizontal=1;startSize=26;fillColor=none;horizontalStack=0;resizeParent=1;resizeParentMax=0;resizeLast=0;collapsible=1;marginBottom=0;whiteSpace=wrap;html=1;" vertex="1" parent="1">
          <mxGeometry x="-100" y="1310" width="270" height="130" as="geometry" />
        </mxCell>
        <mxCell id="RCFaWYIWiVFVG0Mpc9oN-148" value="id = &quot;ea983abf-070f-4ad7-89e6-deaec0779a04&quot;" style="text;strokeColor=none;fillColor=none;align=left;verticalAlign=top;spacingLeft=4;spacingRight=4;overflow=hidden;rotatable=0;points=[[0,0.5],[1,0.5]];portConstraint=eastwest;whiteSpace=wrap;html=1;" vertex="1" parent="RCFaWYIWiVFVG0Mpc9oN-147">
          <mxGeometry y="26" width="270" height="26" as="geometry" />
        </mxCell>
        <mxCell id="RCFaWYIWiVFVG0Mpc9oN-149" value="nome = &quot;Enzo&quot;" style="text;strokeColor=none;fillColor=none;align=left;verticalAlign=top;spacingLeft=4;spacingRight=4;overflow=hidden;rotatable=0;points=[[0,0.5],[1,0.5]];portConstraint=eastwest;whiteSpace=wrap;html=1;" vertex="1" parent="RCFaWYIWiVFVG0Mpc9oN-147">
          <mxGeometry y="52" width="270" height="26" as="geometry" />
        </mxCell>
        <mxCell id="RCFaWYIWiVFVG0Mpc9oN-150" value="cpf = &quot;021.845.569-53&quot;" style="text;strokeColor=none;fillColor=none;align=left;verticalAlign=top;spacingLeft=4;spacingRight=4;overflow=hidden;rotatable=0;points=[[0,0.5],[1,0.5]];portConstraint=eastwest;whiteSpace=wrap;html=1;" vertex="1" parent="RCFaWYIWiVFVG0Mpc9oN-147">
          <mxGeometry y="78" width="270" height="26" as="geometry" />
        </mxCell>
        <mxCell id="RCFaWYIWiVFVG0Mpc9oN-151" value="dataNascimento = 06/07/2003" style="text;strokeColor=none;fillColor=none;align=left;verticalAlign=top;spacingLeft=4;spacingRight=4;overflow=hidden;rotatable=0;points=[[0,0.5],[1,0.5]];portConstraint=eastwest;whiteSpace=wrap;html=1;" vertex="1" parent="RCFaWYIWiVFVG0Mpc9oN-147">
          <mxGeometry y="104" width="270" height="26" as="geometry" />
        </mxCell>
        <mxCell id="RCFaWYIWiVFVG0Mpc9oN-158" style="edgeStyle=orthogonalEdgeStyle;rounded=0;orthogonalLoop=1;jettySize=auto;html=1;endArrow=none;endFill=0;" edge="1" parent="1" source="RCFaWYIWiVFVG0Mpc9oN-152" target="RCFaWYIWiVFVG0Mpc9oN-135">
          <mxGeometry relative="1" as="geometry" />
        </mxCell>
        <mxCell id="RCFaWYIWiVFVG0Mpc9oN-200" style="edgeStyle=orthogonalEdgeStyle;rounded=0;orthogonalLoop=1;jettySize=auto;html=1;endArrow=none;endFill=0;" edge="1" parent="1" source="RCFaWYIWiVFVG0Mpc9oN-152" target="RCFaWYIWiVFVG0Mpc9oN-196">
          <mxGeometry relative="1" as="geometry" />
        </mxCell>
        <mxCell id="RCFaWYIWiVFVG0Mpc9oN-201" style="edgeStyle=orthogonalEdgeStyle;rounded=0;orthogonalLoop=1;jettySize=auto;html=1;endArrow=none;endFill=0;" edge="1" parent="1" source="RCFaWYIWiVFVG0Mpc9oN-152" target="RCFaWYIWiVFVG0Mpc9oN-198">
          <mxGeometry relative="1" as="geometry" />
        </mxCell>
        <mxCell id="RCFaWYIWiVFVG0Mpc9oN-152" value="a2: Aluno" style="swimlane;fontStyle=0;childLayout=stackLayout;horizontal=1;startSize=26;fillColor=none;horizontalStack=0;resizeParent=1;resizeParentMax=0;resizeLast=0;collapsible=1;marginBottom=0;whiteSpace=wrap;html=1;" vertex="1" parent="1">
          <mxGeometry x="319" y="1310" width="270" height="130" as="geometry" />
        </mxCell>
        <mxCell id="RCFaWYIWiVFVG0Mpc9oN-153" value="id = &quot;ea983abf-070f-4ad7-89e6-deaec0779a04&quot;" style="text;strokeColor=none;fillColor=none;align=left;verticalAlign=top;spacingLeft=4;spacingRight=4;overflow=hidden;rotatable=0;points=[[0,0.5],[1,0.5]];portConstraint=eastwest;whiteSpace=wrap;html=1;" vertex="1" parent="RCFaWYIWiVFVG0Mpc9oN-152">
          <mxGeometry y="26" width="270" height="26" as="geometry" />
        </mxCell>
        <mxCell id="RCFaWYIWiVFVG0Mpc9oN-154" value="nome = &quot;Valentina&quot;" style="text;strokeColor=none;fillColor=none;align=left;verticalAlign=top;spacingLeft=4;spacingRight=4;overflow=hidden;rotatable=0;points=[[0,0.5],[1,0.5]];portConstraint=eastwest;whiteSpace=wrap;html=1;" vertex="1" parent="RCFaWYIWiVFVG0Mpc9oN-152">
          <mxGeometry y="52" width="270" height="26" as="geometry" />
        </mxCell>
        <mxCell id="RCFaWYIWiVFVG0Mpc9oN-155" value="cpf = &quot;069.699.966-69&quot;" style="text;strokeColor=none;fillColor=none;align=left;verticalAlign=top;spacingLeft=4;spacingRight=4;overflow=hidden;rotatable=0;points=[[0,0.5],[1,0.5]];portConstraint=eastwest;whiteSpace=wrap;html=1;" vertex="1" parent="RCFaWYIWiVFVG0Mpc9oN-152">
          <mxGeometry y="78" width="270" height="26" as="geometry" />
        </mxCell>
        <mxCell id="RCFaWYIWiVFVG0Mpc9oN-156" value="dataNascimento = 06/07/2003" style="text;strokeColor=none;fillColor=none;align=left;verticalAlign=top;spacingLeft=4;spacingRight=4;overflow=hidden;rotatable=0;points=[[0,0.5],[1,0.5]];portConstraint=eastwest;whiteSpace=wrap;html=1;" vertex="1" parent="RCFaWYIWiVFVG0Mpc9oN-152">
          <mxGeometry y="104" width="270" height="26" as="geometry" />
        </mxCell>
        <mxCell id="RCFaWYIWiVFVG0Mpc9oN-210" style="edgeStyle=orthogonalEdgeStyle;rounded=0;orthogonalLoop=1;jettySize=auto;html=1;endArrow=none;endFill=0;" edge="1" parent="1" source="RCFaWYIWiVFVG0Mpc9oN-163" target="RCFaWYIWiVFVG0Mpc9oN-126">
          <mxGeometry relative="1" as="geometry">
            <Array as="points">
              <mxPoint x="35" y="1820" />
              <mxPoint x="830" y="1820" />
            </Array>
          </mxGeometry>
        </mxCell>
        <mxCell id="RCFaWYIWiVFVG0Mpc9oN-163" value="av1: Avaliacao" style="swimlane;fontStyle=0;childLayout=stackLayout;horizontal=1;startSize=26;fillColor=none;horizontalStack=0;resizeParent=1;resizeParentMax=0;resizeLast=0;collapsible=1;marginBottom=0;whiteSpace=wrap;html=1;" vertex="1" parent="1">
          <mxGeometry x="-100" y="1640" width="270" height="104" as="geometry" />
        </mxCell>
        <mxCell id="RCFaWYIWiVFVG0Mpc9oN-164" value="id =&amp;nbsp; &quot;af5d0ef5-24ae-466e-8f79-9a3e6bbf8037&quot;" style="text;strokeColor=none;fillColor=none;align=left;verticalAlign=top;spacingLeft=4;spacingRight=4;overflow=hidden;rotatable=0;points=[[0,0.5],[1,0.5]];portConstraint=eastwest;whiteSpace=wrap;html=1;" vertex="1" parent="RCFaWYIWiVFVG0Mpc9oN-163">
          <mxGeometry y="26" width="270" height="26" as="geometry" />
        </mxCell>
        <mxCell id="RCFaWYIWiVFVG0Mpc9oN-165" value="nota = 10" style="text;strokeColor=none;fillColor=none;align=left;verticalAlign=top;spacingLeft=4;spacingRight=4;overflow=hidden;rotatable=0;points=[[0,0.5],[1,0.5]];portConstraint=eastwest;whiteSpace=wrap;html=1;" vertex="1" parent="RCFaWYIWiVFVG0Mpc9oN-163">
          <mxGeometry y="52" width="270" height="26" as="geometry" />
        </mxCell>
        <mxCell id="RCFaWYIWiVFVG0Mpc9oN-166" value="data = 15/02/2023" style="text;strokeColor=none;fillColor=none;align=left;verticalAlign=top;spacingLeft=4;spacingRight=4;overflow=hidden;rotatable=0;points=[[0,0.5],[1,0.5]];portConstraint=eastwest;whiteSpace=wrap;html=1;" vertex="1" parent="RCFaWYIWiVFVG0Mpc9oN-163">
          <mxGeometry y="78" width="270" height="26" as="geometry" />
        </mxCell>
        <mxCell id="RCFaWYIWiVFVG0Mpc9oN-211" style="edgeStyle=orthogonalEdgeStyle;rounded=0;orthogonalLoop=1;jettySize=auto;html=1;endArrow=none;endFill=0;" edge="1" parent="1" source="RCFaWYIWiVFVG0Mpc9oN-167" target="RCFaWYIWiVFVG0Mpc9oN-126">
          <mxGeometry relative="1" as="geometry">
            <Array as="points">
              <mxPoint x="465" y="1820" />
              <mxPoint x="830" y="1820" />
            </Array>
          </mxGeometry>
        </mxCell>
        <mxCell id="RCFaWYIWiVFVG0Mpc9oN-167" value="av2: Avaliacao" style="swimlane;fontStyle=0;childLayout=stackLayout;horizontal=1;startSize=26;fillColor=none;horizontalStack=0;resizeParent=1;resizeParentMax=0;resizeLast=0;collapsible=1;marginBottom=0;whiteSpace=wrap;html=1;" vertex="1" parent="1">
          <mxGeometry x="330" y="1640" width="270" height="104" as="geometry" />
        </mxCell>
        <mxCell id="RCFaWYIWiVFVG0Mpc9oN-168" value="is = &quot;d7ec53af-a47e-47e4-98af-9131000d13a1&quot;" style="text;strokeColor=none;fillColor=none;align=left;verticalAlign=top;spacingLeft=4;spacingRight=4;overflow=hidden;rotatable=0;points=[[0,0.5],[1,0.5]];portConstraint=eastwest;whiteSpace=wrap;html=1;" vertex="1" parent="RCFaWYIWiVFVG0Mpc9oN-167">
          <mxGeometry y="26" width="270" height="26" as="geometry" />
        </mxCell>
        <mxCell id="RCFaWYIWiVFVG0Mpc9oN-169" value="nota = 10" style="text;strokeColor=none;fillColor=none;align=left;verticalAlign=top;spacingLeft=4;spacingRight=4;overflow=hidden;rotatable=0;points=[[0,0.5],[1,0.5]];portConstraint=eastwest;whiteSpace=wrap;html=1;" vertex="1" parent="RCFaWYIWiVFVG0Mpc9oN-167">
          <mxGeometry y="52" width="270" height="26" as="geometry" />
        </mxCell>
        <mxCell id="RCFaWYIWiVFVG0Mpc9oN-170" value="data = 31/01/2023" style="text;strokeColor=none;fillColor=none;align=left;verticalAlign=top;spacingLeft=4;spacingRight=4;overflow=hidden;rotatable=0;points=[[0,0.5],[1,0.5]];portConstraint=eastwest;whiteSpace=wrap;html=1;" vertex="1" parent="RCFaWYIWiVFVG0Mpc9oN-167">
          <mxGeometry y="78" width="270" height="26" as="geometry" />
        </mxCell>
        <mxCell id="RCFaWYIWiVFVG0Mpc9oN-188" style="edgeStyle=orthogonalEdgeStyle;rounded=0;orthogonalLoop=1;jettySize=auto;html=1;dashed=1;endArrow=none;endFill=0;" edge="1" parent="1" source="RCFaWYIWiVFVG0Mpc9oN-184">
          <mxGeometry relative="1" as="geometry">
            <mxPoint x="620" y="620" as="targetPoint" />
          </mxGeometry>
        </mxCell>
        <mxCell id="RCFaWYIWiVFVG0Mpc9oN-184" value="Resultado" style="swimlane;fontStyle=0;childLayout=stackLayout;horizontal=1;startSize=26;fillColor=none;horizontalStack=0;resizeParent=1;resizeParentMax=0;resizeLast=0;collapsible=1;marginBottom=0;whiteSpace=wrap;html=1;" vertex="1" parent="1">
          <mxGeometry x="550" y="710" width="140" height="52" as="geometry" />
        </mxCell>
        <mxCell id="RCFaWYIWiVFVG0Mpc9oN-185" value="notaObtida: Double" style="text;strokeColor=none;fillColor=none;align=left;verticalAlign=top;spacingLeft=4;spacingRight=4;overflow=hidden;rotatable=0;points=[[0,0.5],[1,0.5]];portConstraint=eastwest;whiteSpace=wrap;html=1;" vertex="1" parent="RCFaWYIWiVFVG0Mpc9oN-184">
          <mxGeometry y="26" width="140" height="26" as="geometry" />
        </mxCell>
        <mxCell id="RCFaWYIWiVFVG0Mpc9oN-208" style="edgeStyle=orthogonalEdgeStyle;rounded=0;orthogonalLoop=1;jettySize=auto;html=1;endArrow=none;endFill=0;" edge="1" parent="1" source="RCFaWYIWiVFVG0Mpc9oN-190" target="RCFaWYIWiVFVG0Mpc9oN-163">
          <mxGeometry relative="1" as="geometry">
            <Array as="points">
              <mxPoint x="-56" y="1620" />
              <mxPoint x="-56" y="1620" />
            </Array>
          </mxGeometry>
        </mxCell>
        <mxCell id="RCFaWYIWiVFVG0Mpc9oN-190" value="a1r1av1: Resultado" style="swimlane;fontStyle=0;childLayout=stackLayout;horizontal=1;startSize=26;fillColor=none;horizontalStack=0;resizeParent=1;resizeParentMax=0;resizeLast=0;collapsible=1;marginBottom=0;whiteSpace=wrap;html=1;" vertex="1" parent="1">
          <mxGeometry x="-126" y="1530" width="140" height="52" as="geometry" />
        </mxCell>
        <mxCell id="RCFaWYIWiVFVG0Mpc9oN-191" value="notaObtida = 7.5" style="text;strokeColor=none;fillColor=none;align=left;verticalAlign=top;spacingLeft=4;spacingRight=4;overflow=hidden;rotatable=0;points=[[0,0.5],[1,0.5]];portConstraint=eastwest;whiteSpace=wrap;html=1;" vertex="1" parent="RCFaWYIWiVFVG0Mpc9oN-190">
          <mxGeometry y="26" width="140" height="26" as="geometry" />
        </mxCell>
        <mxCell id="RCFaWYIWiVFVG0Mpc9oN-207" style="edgeStyle=orthogonalEdgeStyle;rounded=0;orthogonalLoop=1;jettySize=auto;html=1;endArrow=none;endFill=0;" edge="1" parent="1" source="RCFaWYIWiVFVG0Mpc9oN-192" target="RCFaWYIWiVFVG0Mpc9oN-167">
          <mxGeometry relative="1" as="geometry">
            <Array as="points">
              <mxPoint x="220" y="1556" />
              <mxPoint x="220" y="1690" />
            </Array>
          </mxGeometry>
        </mxCell>
        <mxCell id="RCFaWYIWiVFVG0Mpc9oN-192" value="a1r2av2: Resultado" style="swimlane;fontStyle=0;childLayout=stackLayout;horizontal=1;startSize=26;fillColor=none;horizontalStack=0;resizeParent=1;resizeParentMax=0;resizeLast=0;collapsible=1;marginBottom=0;whiteSpace=wrap;html=1;" vertex="1" parent="1">
          <mxGeometry x="56" y="1530" width="140" height="52" as="geometry" />
        </mxCell>
        <mxCell id="RCFaWYIWiVFVG0Mpc9oN-193" value="notaObtida = 8.0" style="text;strokeColor=none;fillColor=none;align=left;verticalAlign=top;spacingLeft=4;spacingRight=4;overflow=hidden;rotatable=0;points=[[0,0.5],[1,0.5]];portConstraint=eastwest;whiteSpace=wrap;html=1;" vertex="1" parent="RCFaWYIWiVFVG0Mpc9oN-192">
          <mxGeometry y="26" width="140" height="26" as="geometry" />
        </mxCell>
        <mxCell id="RCFaWYIWiVFVG0Mpc9oN-206" style="edgeStyle=orthogonalEdgeStyle;rounded=0;orthogonalLoop=1;jettySize=auto;html=1;endArrow=none;endFill=0;" edge="1" parent="1" source="RCFaWYIWiVFVG0Mpc9oN-196" target="RCFaWYIWiVFVG0Mpc9oN-163">
          <mxGeometry relative="1" as="geometry">
            <Array as="points">
              <mxPoint x="250" y="1556" />
              <mxPoint x="250" y="1710" />
            </Array>
          </mxGeometry>
        </mxCell>
        <mxCell id="RCFaWYIWiVFVG0Mpc9oN-196" value="a2r1av1: Resultado" style="swimlane;fontStyle=0;childLayout=stackLayout;horizontal=1;startSize=26;fillColor=none;horizontalStack=0;resizeParent=1;resizeParentMax=0;resizeLast=0;collapsible=1;marginBottom=0;whiteSpace=wrap;html=1;" vertex="1" parent="1">
          <mxGeometry x="290" y="1530" width="140" height="52" as="geometry" />
        </mxCell>
        <mxCell id="RCFaWYIWiVFVG0Mpc9oN-197" value="notaObtida = 10.0" style="text;strokeColor=none;fillColor=none;align=left;verticalAlign=top;spacingLeft=4;spacingRight=4;overflow=hidden;rotatable=0;points=[[0,0.5],[1,0.5]];portConstraint=eastwest;whiteSpace=wrap;html=1;" vertex="1" parent="RCFaWYIWiVFVG0Mpc9oN-196">
          <mxGeometry y="26" width="140" height="26" as="geometry" />
        </mxCell>
        <mxCell id="RCFaWYIWiVFVG0Mpc9oN-209" style="edgeStyle=orthogonalEdgeStyle;rounded=0;orthogonalLoop=1;jettySize=auto;html=1;endArrow=none;endFill=0;" edge="1" parent="1" source="RCFaWYIWiVFVG0Mpc9oN-198" target="RCFaWYIWiVFVG0Mpc9oN-167">
          <mxGeometry relative="1" as="geometry">
            <Array as="points">
              <mxPoint x="550" y="1620" />
              <mxPoint x="550" y="1620" />
            </Array>
          </mxGeometry>
        </mxCell>
        <mxCell id="RCFaWYIWiVFVG0Mpc9oN-198" value="a2r2av2: Resultado" style="swimlane;fontStyle=0;childLayout=stackLayout;horizontal=1;startSize=26;fillColor=none;horizontalStack=0;resizeParent=1;resizeParentMax=0;resizeLast=0;collapsible=1;marginBottom=0;whiteSpace=wrap;html=1;" vertex="1" parent="1">
          <mxGeometry x="480" y="1530" width="140" height="52" as="geometry" />
        </mxCell>
        <mxCell id="RCFaWYIWiVFVG0Mpc9oN-199" value="notaObtida = 9.3" style="text;strokeColor=none;fillColor=none;align=left;verticalAlign=top;spacingLeft=4;spacingRight=4;overflow=hidden;rotatable=0;points=[[0,0.5],[1,0.5]];portConstraint=eastwest;whiteSpace=wrap;html=1;" vertex="1" parent="RCFaWYIWiVFVG0Mpc9oN-198">
          <mxGeometry y="26" width="140" height="26" as="geometry" />
        </mxCell>
      </root>
    </mxGraphModel>
  </diagram>
</mxfile>
